<?xml version="1.0" encoding="UTF-8"?>
<svg id="Livello_1" data-name="Livello 1" xmlns="http://www.w3.org/2000/svg" viewBox="0 0 841.89 595.28">
  <defs>
    <style>
      .cls-1 {
        fill: #f39200;
      }

      .cls-1, .cls-2 {
        stroke-width: 0px;
      }

      .cls-2 {
        fill: #260c19;
      }
    </style>
  </defs>
  <path class="cls-2" d="M288.1,363.04l37.13-68.08,68.08-37.13,3.24-1.76c5.5-3,7.38-9.98,4.13-15.33l-1.91-3.16-40.51-66.82,1.79-77.21.09-3.69c.15-6.23-4.92-11.33-11.15-11.23l-3.73.06-78.1,1.26-66.54-40.45-3.13-1.91c-5.36-3.26-12.35-1.38-15.35,4.13l-1.77,3.25-37.18,68.25-68.11,37.31-3.25,1.78c-5.5,3.01-7.36,10-4.1,15.35l1.91,3.13,40.6,66.49-1.37,77.8-.07,3.72c-.11,6.24,4.99,11.32,11.23,11.17l3.69-.09,77.6-1.81,66.56,40.41,3.15,1.91c5.35,3.25,12.34,1.37,15.34-4.13l1.77-3.24ZM204.11,317.53l-84.86,1.98,1.5-85.09-44.37-72.67,74.51-40.82,40.67-74.65,72.71,44.2,85.38-1.38-1.96,84.47,44.29,73.04-74.48,40.62-40.62,74.48-72.77-44.18Z"/>
  <path class="cls-2" d="M322.72,146.98c-18.6-29.25-51.31-48.66-88.54-48.66s-69.17,18.95-87.88,47.63c-10.74,16.46-16.98,36.11-16.98,57.23v.29c.16,57.78,47.05,104.56,104.86,104.56s104.39-46.48,104.86-103.99c0-.29,0-.58,0-.87,0-20.68-5.98-39.96-16.32-56.2ZM234.18,297.63c-52.17,0-94.45-42.29-94.45-94.45s42.29-94.45,94.45-94.45,94.45,42.29,94.45,94.45-42.29,94.45-94.45,94.45Z"/>
  <path class="cls-1" d="M314.39,191.14c-5.4-39.4-39.19-69.75-80.07-69.75-41.47,0-75.65,31.23-80.29,71.46-.7,6.06-.33,12.21,1.04,18.15,5.36,23.29,18.76,37.58,37.69,44.92v13.57c0,2.5,2.03,4.52,4.52,4.52h73.77c2.5,0,4.52-2.03,4.52-4.52v-14.12c18.85-7.32,32.05-20.96,37.54-42.45,1.82-7.12,2.25-14.51,1.26-21.78ZM238.29,192.15l14.24-14.24c1.12-1.12,2.92-1.12,4.04,0l3.86,3.86c1.11,1.11,1.11,2.92,0,4.04l-14.24,14.24c-1.12,1.12-2.92,1.12-4.04,0l-3.86-3.86c-1.12-1.12-1.12-2.92,0-4.04ZM198.76,239.42c-12.89,0-23.34-10.86-23.34-24.27s10.45-24.27,23.34-24.27,23.34,10.86,23.34,24.27-10.45,24.27-23.34,24.27ZM208.65,185.81c-1.12-1.12-1.12-2.92,0-4.04l3.86-3.86c1.12-1.12,2.92-1.12,4.04,0l14.24,14.24c1.12,1.12,1.12,2.92,0,4.04l-3.86,3.86c-1.12,1.12-2.92,1.12-4.04,0l-14.24-14.24ZM223,243.66l11.63-20.14,11.63,20.14h-23.25ZM271.46,239.42c-12.89,0-23.34-10.86-23.34-24.27s10.45-24.27,23.34-24.27,23.34,10.86,23.34,24.27-10.45,24.27-23.34,24.27Z"/>
  <g>
    <path class="cls-2" d="M378.47,364.46c1.29,5,2.87,9.04,4.72,12.12,1.85,3.08,3.82,4.62,5.92,4.62,8.51,0,14.98-1.08,19.42-3.24,4.44-2.16,6.66-4.96,6.66-8.42,0-.49-.16-1.54-.46-3.14-.31-1.6-.71-3.58-1.2-5.92-.49-2.34-1.02-4.96-1.57-7.86-.55-2.9-1.14-5.95-1.76-9.16,3.08.12,6.23.18,9.43.18s6.23-.06,9.43-.18c2.47-.12,4.41-1.17,5.83-3.15,1.42-1.97,2.13-4.44,2.13-7.4s-.8-5.79-2.41-8.51c-1.6-2.71-4.19-4.07-7.77-4.07-1.48,0-4.01.06-7.58.18-3.58.12-7.46.43-11.65.92-.12-1.36-.19-2.71-.19-4.07,0-3.33.28-6.57.83-9.71.56-3.14,1.88-5.33,3.98-6.57.62-.37,1.23-.55,1.85-.55.74,0,1.63.37,2.68,1.11,1.05.74,2.22,1.82,3.51,3.24,1.29,1.42,2.53,2.81,3.7,4.16,1.17,1.36,2.25,2.03,3.24,2.03s2.31-.55,3.98-1.67c1.66-1.11,3.3-2.46,4.9-4.07,1.6-1.6,2.99-3.36,4.16-5.27,1.17-1.91,1.76-3.67,1.76-5.27,0-1.36-.62-3.17-1.85-5.46-1.23-2.28-3.14-4.53-5.73-6.75s-5.89-4.16-9.9-5.83c-4.01-1.67-8.85-2.5-14.52-2.5-6.04,0-11.16,1.54-15.35,4.62-4.19,3.08-7.68,7.12-10.45,12.12s-4.87,10.7-6.29,17.11c-1.42,6.41-2.25,11.9-2.5,16.46-.25,4.56-.37,8.08-.37,10.54,0,4.07.25,8.73.74,13.97.49,5.24,1.39,10.36,2.68,15.35Z"/>
    <path class="cls-2" d="M436.65,324.23c0,6.17,1.27,11.96,3.79,17.39,2.53,5.43,6.01,10.15,10.45,14.15,4.44,4.01,9.62,7.19,15.54,9.53,5.92,2.34,12.27,3.51,19.05,3.51s13.13-1.17,19.05-3.51c5.92-2.34,11.1-5.52,15.54-9.53,4.44-4.01,7.95-8.72,10.54-14.15.43-.9.81-1.82,1.17-2.74.35.92.72,1.84,1.14,2.74,2.53,5.43,6.01,10.15,10.45,14.15,4.44,4.01,9.62,7.19,15.54,9.53,5.92,2.34,12.27,3.51,19.05,3.51s13.13-1.17,19.05-3.51c5.92-2.34,11.1-5.52,15.54-9.53,4.44-4.01,7.95-8.72,10.54-14.15,2.59-5.42,3.88-11.22,3.88-17.39s-.74-11.96-2.22-17.39c-1.48-5.42-4.1-10.17-7.86-14.24-3.76-4.07-8.79-7.27-15.08-9.62-6.29-2.34-14.24-3.52-23.86-3.52-8.63,0-16.03,1.17-22.2,3.52-6.17,2.34-11.22,5.55-15.17,9.62-3.81,3.93-6.64,8.5-8.49,13.7-1.5-5.19-4.06-9.77-7.7-13.7-3.76-4.07-8.79-7.27-15.08-9.62-6.29-2.34-14.24-3.52-23.86-3.52-8.63,0-16.03,1.17-22.2,3.52-6.17,2.34-11.22,5.55-15.17,9.62-3.95,4.07-6.84,8.82-8.69,14.24-1.85,5.43-2.77,11.22-2.77,17.39ZM570.58,318.5c2.1-2.22,4.56-3.33,7.4-3.33s5.49,1.11,7.58,3.33c2.1,2.22,3.14,5.73,3.14,10.54s-1.14,8.45-3.42,11.28c-2.28,2.84-4.72,4.25-7.31,4.25-2.84,0-5.3-1.42-7.4-4.25-2.1-2.83-3.14-6.6-3.14-11.28s1.05-8.32,3.14-10.54ZM478.09,318.5c2.1-2.22,4.56-3.33,7.4-3.33s5.49,1.11,7.58,3.33c2.1,2.22,3.14,5.73,3.14,10.54s-1.14,8.45-3.42,11.28c-2.28,2.84-4.72,4.25-7.31,4.25-2.84,0-5.3-1.42-7.4-4.25-2.1-2.83-3.14-6.6-3.14-11.28s1.05-8.32,3.14-10.54Z"/>
    <path class="cls-2" d="M625.25,304.07c1.29,1.36,2.99,2.47,5.09,3.33,2.1.86,4.62,1.29,7.58,1.29,1.48,0,3.76.03,6.84.09,3.08.06,6.66.09,10.73.09-1.11,4.44-1.97,9.41-2.59,14.89-.62,5.49-1.11,10.85-1.48,16.09-.37,5.24-.62,9.93-.74,14.06-.12,4.13-.19,7-.19,8.6,0,2.84.31,5.12.92,6.84.62,1.73,1.69,3.05,3.24,3.98,1.54.92,3.64,1.54,6.29,1.85,2.65.31,6.01.46,10.08.46,6.17,0,10.73-.92,13.69-2.78,2.96-1.85,4.44-4.01,4.44-6.47,0-.74-.06-2.34-.18-4.81-.12-2.47-.31-5.43-.56-8.88-.25-3.45-.55-7.28-.92-11.47-.37-4.19-.77-8.33-1.2-12.39-.43-4.07-.9-7.89-1.39-11.47-.49-3.58-.99-6.6-1.48-9.06,4.56-.37,8.94-.83,13.13-1.39,4.19-.55,7.89-1.36,11.1-2.4,3.21-1.05,5.76-2.31,7.68-3.79,1.91-1.48,2.87-3.21,2.87-5.18,0-4.93-1.39-8.94-4.16-12.02-2.78-3.08-6.51-5.46-11.19-7.12-4.69-1.67-10.08-2.77-16.19-3.33-6.1-.56-12.49-.83-19.15-.83-5.67,0-11.32.12-16.93.37-5.61.25-11.01.43-16.19.56-1.97,0-3.76.8-5.37,2.4-1.6,1.6-2.96,3.52-4.07,5.73-1.11,2.22-1.97,4.53-2.59,6.94-.62,2.4-.92,4.47-.92,6.2,0,1.6.31,3.27.92,4.99.62,1.73,1.57,3.27,2.87,4.62Z"/>
    <path class="cls-1" d="M748.38,504.02c-.88-4.49-2.03-8.46-3.44-11.9-1.41-3.44-2.91-5.16-4.49-5.16h-9.78l-31.72.53h-9.78c-1.06,0-1.59-1.76-1.59-5.29s.31-8.02.93-13.48c.62-5.46,1.36-11.5,2.25-18.11.88-6.61,1.8-12.91,2.78-18.9.97-5.99,1.76-11.28,2.38-15.86.62-4.58.92-7.67.92-9.25,0-4.58-3.17-8.37-9.52-11.37-6.34-2.99-15.6-4.49-27.76-4.49-3,0-5.55,2.07-7.67,6.21-2.12,4.14-3.79,9.56-5.02,16.26-.1.54-.18,1.1-.27,1.65-.31-2.1-.69-4.23-1.18-6.41-1.15-5.11-2.69-8.55-4.63-10.31-1.94-1.59-4.06-2.73-6.34-3.44-2.29-.7-4.67-1.06-7.14-1.06-3.17,0-6.34.49-9.52,1.45-3.17.97-6.04,2.16-8.59,3.57-2.56,1.41-4.58,3-6.08,4.76-1.5,1.76-2.25,3.35-2.25,4.76,0,1.24.22,4.45.66,9.65.44,5.2.83,11.28,1.19,18.24.35,6.96.57,12.6.66,16.92.09,4.32.13,7.01.13,8.06,0,6.7-.31,13.09-.93,19.17-.62,6.08-1.72,11.28-3.3,15.6-1.59,4.32-3.88,6.48-6.87,6.48-1.94,0-3.57-2.42-4.89-7.27-1.32-4.84-2.42-10.93-3.3-18.24-.88-7.31-1.54-15.24-1.98-23.79-.44-8.55-.75-16.52-.93-23.92.35-4.58.53-8.63.53-12.16,0-.88-.05-2.6-.13-5.16-.09-2.55-.4-5.06-.92-7.53v-.26c0-1.06-.4-1.94-1.19-2.64-.79-.7-1.63-1.23-2.51-1.59-1.41-.7-3.09-1.14-5.02-1.32-1.94-.17-3.96-.26-6.08-.26-1.94,0-3.92.09-5.95.26-2.03.18-3.75.62-5.16,1.32-.88.18-1.68.62-2.38,1.32-.36.53-.66.97-.93,1.32-.26.35-.4.79-.4,1.32-.88,2.29-1.59,5.73-2.11,10.31-.53,4.58-.88,9.96-1.06,16.13-1.06,7.4-2.29,15.29-3.7,23.66-1.41,8.37-2.95,16.17-4.63,23.4-1.68,7.23-3.44,13.22-5.29,17.98-1.85,4.76-3.75,7.14-5.68,7.14-3,0-5.07-1.89-6.21-5.68-1.15-3.79-1.72-8.59-1.72-14.41s.4-12.2,1.19-19.17c.79-6.96,1.67-13.57,2.64-19.83.97-6.25,1.85-11.72,2.64-16.39.79-4.67,1.19-7.71,1.19-9.12,0-1.94-1.41-3.88-4.23-5.82-2.82-1.94-6.34-3.66-10.57-5.16-4.23-1.5-8.77-2.73-13.62-3.7-4.85-.97-9.3-1.45-13.35-1.45-2.64,0-5.25,2.12-7.8,6.34-2.56,4.23-4.72,9.74-6.48,16.52-1.76,6.79-2.95,13.48-3.57,20.09-.62,6.61-.92,12.12-.92,16.52,0,3.03.14,6.56.41,10.55-.96-5.93-2.06-12.05-3.31-18.35-2.29-11.54-5.2-22.12-8.72-31.72-3.53-9.6-7.76-17.58-12.69-23.92-4.94-6.34-10.84-9.52-17.71-9.52s-12.52,2.03-17.98,6.08c-5.47,4.06-10.4,9.43-14.8,16.13-4.41,6.7-8.33,14.28-11.76,22.74-3.44,8.46-6.3,17.05-8.59,25.78-2.29,8.72-4.01,17.23-5.16,25.51-.64,4.61-1.09,8.87-1.37,12.83-1.07-.53-2.24-1.06-3.52-1.59-3.17-1.32-6.7-2.64-10.57-3.97-3.88-1.32-7.67-2.51-11.37-3.57,6.87-4.58,12.38-10.13,16.52-16.66,4.14-6.52,6.56-12.12,7.27-16.79.7-4.67,1.06-8.24,1.06-10.71,0-4.58-.88-9.74-2.64-15.47-1.76-5.72-5.46-11.32-11.1-16.79-5.64-5.46-13.04-9.91-22.21-13.35-9.17-3.44-20.36-5.16-33.57-5.16-7.23,0-13.44.26-18.64.79-5.2.53-9.43,1.59-12.69,3.17-3.26,1.59-5.68,3.75-7.27,6.48-1.59,2.73-2.38,6.39-2.38,10.97,0,5.99.88,12.29,2.64,18.9,1.76,6.61,3.61,12.03,5.55,16.26-.71,8.81-1.32,17.8-1.85,26.96-.47,8.18-.84,15.79-1.1,22.84-.46-1.81-1.19-3.78-2.2-5.92-1.85-3.87-6.04-7.84-12.56-11.9-6.52-4.05-14.98-7.05-25.38-8.99,12.69-5.99,20.84-12.38,24.45-19.17,3.61-6.78,5.42-12.56,5.42-17.32,0-3.7-1.32-8.5-3.97-14.41-2.64-5.9-10-11.76-22.07-17.58-12.07-5.82-28.6-8.72-49.57-8.72-7.93,0-15.11.62-21.55,1.85-6.44,1.24-11.94,3.04-16.52,5.42-4.59,2.38-8.11,5.29-10.57,8.72-2.47,3.44-3.7,7.27-3.7,11.5,0,3.88.71,7.58,2.11,11.1,1.41,3.53,3.21,6.7,5.42,9.52,2.2,2.82,4.71,5.11,7.53,6.87,2.82,1.76,5.55,2.91,8.2,3.44-2.29,1.59-4.06,3.97-5.29,7.14-1.23,3.17-2.16,6.87-2.78,11.1-.62,4.23-.97,8.86-1.06,13.88-.09,5.02-.13,10.18-.13,15.47-1.41,1.06-2.34,2.56-2.78,4.49-.44,1.94-.66,4.06-.66,6.34,0,8.46,3.74,15.16,11.24,20.09,7.49,4.94,19.52,7.4,36.09,7.4s29.61-1.41,40.71-4.23c11.1-2.82,19.87-6.39,26.3-10.71,6.43-4.32,10.35-8.37,11.76-12.16.5-1.34.91-2.59,1.23-3.75-.14,4.82-.25,9.12-.31,12.87-.09,5.46-.13,8.9-.13,10.31,0,3.17.4,5.68,1.19,7.53s2.2,3.3,4.23,4.36c2.02,1.06,4.76,1.76,8.2,2.12,3.44.35,7.8.53,13.09.53,8.1,0,14.1-1.01,17.98-3.04,3.88-2.02,5.82-4.36,5.82-7.01,0-.88-.05-3.83-.13-8.86-.09-5.02-.31-11.24-.66-18.64,1.94,1.24,4.89,3.22,8.86,5.95,3.97,2.73,8.2,5.51,12.69,8.33,4.49,2.82,8.9,5.25,13.22,7.27,4.32,2.03,7.71,3.04,10.18,3.04,2.99,0,5.64-1.28,7.93-3.83,2.29-2.55,4.27-5.51,5.95-8.86,1.04-2.07,1.9-4.17,2.64-6.28,1.54,1.24,3.29,2.33,5.29,3.24,2.91,1.32,6.12,2.34,9.65,3.04,3.52.71,6.87,1.06,10.05,1.06,1.41,0,2.69-.97,3.83-2.91,1.14-1.94,2.16-4.58,3.04-7.93h29.34c.88,8.64,2.2,15.86,3.96,21.68,1.76,5.82,4.32,8.72,7.67,8.72,3.87,0,7.62-.17,11.23-.53,3.61-.35,6.83-1.06,9.65-2.12,2.82-1.06,5.06-2.51,6.74-4.36,1.67-1.85,2.51-4.27,2.51-7.27,0-1.94-.22-6.74-.66-14.41-.35-6.08-.98-13.02-1.89-20.77.68,2.95,1.48,6.04,2.41,9.27,2.55,8.81,6.3,16.61,11.24,23.4,4.93,6.79,11.14,12.29,18.64,16.52,7.49,4.23,16.61,6.34,27.36,6.34,6.34,0,12.03-2.82,17.05-8.46,5.02-5.64,9.56-12.86,13.62-21.68,3.88,8.81,8.63,16.04,14.28,21.68,5.64,5.64,12.51,8.46,20.62,8.46,6.17,0,11.76-1.94,16.79-5.82,5.02-3.87,9.47-9.08,13.35-15.6,3.87-6.52,7.22-13.97,10.05-22.34,2.82-8.37,5.06-17.05,6.74-26.04.34-1.81.64-3.57.94-5.32.22,4.89.65,10.58,1.31,17.09.88,8.72,1.98,16.52,3.3,23.4,1.32,6.87,2.91,12.47,4.76,16.79,1.85,4.32,3.83,6.65,5.95,7.01,2.64.53,6.17.79,10.58.79.88,0,2.86-.04,5.95-.13,3.08-.09,7.8-.35,14.14-.79,6.34-.44,12.82-1.06,19.43-1.85,6.61-.79,12.64-1.67,18.11-2.64,5.46-.97,10.05-1.94,13.75-2.91,3.7-.97,5.82-1.89,6.34-2.78,1.23-1.76,1.85-4.84,1.85-9.25s-.44-8.86-1.32-13.35ZM165.46,452.34c1.41-.53,2.42-1.1,3.04-1.72.62-.62,1.28-1.14,1.98-1.59.7-.44,1.63-.83,2.78-1.19,1.14-.35,2.95-.53,5.42-.53,7.4,0,12.56,1.02,15.47,3.04,2.91,2.03,4.36,4.19,4.36,6.48,0,.36-.13,1.32-.4,2.91-.26,1.59-2.34,3.61-6.21,6.08-3.88,2.47-9.17,4.06-15.86,4.76-1.41-10.22-4.94-16.3-10.57-18.24ZM207.37,495.03c-.44,1.5-2.56,3.26-6.34,5.29-3.79,2.03-8.86,3.04-15.2,3.04-1.24,0-2.11-.04-2.64-.13-.53-.09-1.02-.17-1.45-.26-.44-.09-.97-.17-1.59-.26-.62-.09-1.63-.22-3.04-.4.17-.53.26-1.32.26-2.38v-14.54c5.64-1.06,10.48-1.59,14.54-1.59,6.17,0,10.4.93,12.69,2.78,2.29,1.85,3.44,3.66,3.44,5.42,0,.53-.22,1.54-.66,3.04ZM318.93,468.07c-2.56,3.61-6.39,6.13-11.5,7.53-.35-5.99-.71-11.98-1.06-17.98l-1.06-16.92c5.99.53,10.4,2.38,13.22,5.55,2.82,3.17,4.23,6.7,4.23,10.58s-1.28,7.62-3.83,11.24ZM408.41,479.04c.88-5.29,1.72-10.53,2.51-15.73.79-5.2,1.72-9.78,2.78-13.75,1.06-3.96,2.2-7.18,3.44-9.65,1.23-2.47,2.73-3.7,4.49-3.7,1.41,0,2.6,1.15,3.57,3.44.97,2.29,1.76,5.42,2.38,9.38.62,3.96,1.1,8.55,1.45,13.75.35,5.2.62,10.62.79,16.26h-21.41Z"/>
  </g>
</svg>